# xmcd CD database file
#
# Track frame offsets:
#	150
#	27452
#	50540
#	71902
#	94497
#	121930
#	138667
#	163517
#	175687
#	197667
#	218460
#	244945
#
# Disc length: 3676 seconds
#
# Revision: 0
# Processed by: cddbd v1.5.2PL0 Copyright (c) Steve Scherf et al.
# Submitted via: CDex 1.51
#
DISCID=af0e5a0c
DTITLE=Golden Eagle Jazz Band - The Eagle Flies North
DYEAR=1993
DGENRE=Jazz
TTITLE0=Nobody's Sweetheart Now
TTITLE1=Downhearted Blues
TTITLE2=Good Old New York
TTITLE3=Go Back to Where You Stayed Last Night
TTITLE4=Friendless Blues
TTITLE5=A Porter's Lovesong (to a Chambermaid)
TTITLE6=Baby Have Pity on Me
TTITLE7=Si Tu Vois Ma Mere
TTITLE8=After you've Gone
TTITLE9=Yama Yama Man
TTITLE10=Do You Ever Think of Me
TTITLE11=Jelly Bean Blues
EXTD=YEAR: 1993
EXTT0=
EXTT1=
EXTT2=
EXTT3=
EXTT4=
EXTT5=
EXTT6=
EXTT7=
EXTT8=
EXTT9=
EXTT10=
EXTT11=
PLAYORDER=
